Coordinates
version=1
nRows=16
nColumns=63
inDegrees=yes

Units are S.I. units (second, meters, Newtons, ...)
If the header above contains a line with 'inDegrees', this indicates whether rotational values are in degrees (yes) or radians (no).

endheader
time	pelvis_tilt	pelvis_list	pelvis_rotation	pelvis_tx	pelvis_ty	pelvis_tz	hip_flexion_r	hip_adduction_r	hip_rotation_r	knee_angle_r	knee_angle_r_beta	ankle_angle_r	subtalar_angle_r	mtp_angle_r	hip_flexion_l	hip_adduction_l	hip_rotation_l	knee_angle_l	knee_angle_l_beta	ankle_angle_l	subtalar_angle_l	mtp_angle_l	L5_S1_Flex_Ext	L5_S1_Lat_Bending	L5_S1_axial_rotation	L4_L5_Flex_Ext	L4_L5_Lat_Bending	L4_L5_axial_rotation	L3_L4_Flex_Ext	L3_L4_Lat_Bending	L3_L4_axial_rotation	L2_L3_Flex_Ext	L2_L3_Lat_Bending	L2_L3_axial_rotation	L1_L2_Flex_Ext	L1_L2_Lat_Bending	L1_L2_axial_rotation	L1_T12_Flex_Ext	L1_T12_Lat_Bending	L1_T12_axial_rotation	Abs_r3	Abs_r2	Abs_r1	Abs_t1	Abs_t2	neck_flexion	neck_bending	neck_rotation	arm_flex_r	arm_add_r	arm_rot_r	elbow_flex_r	pro_sup_r	wrist_flex_r	wrist_dev_r	arm_flex_l	arm_add_l	arm_rot_l	elbow_flex_l	pro_sup_l	wrist_flex_l	wrist_dev_l
3.966667	-10.055173	-9.617228	67.777385	0.196394	0.861537	0.571968	16.199836	-1.181112	1.782911	9.601271	0.167574	28.449462	1.177455	0.000000	15.359316	0.275555	-3.270072	6.590346	0.115023	32.584361	5.742611	0.000000	1.227706	-0.129928	0.886823	2.279973	-0.172804	0.942249	2.016999	-0.315907	0.942249	1.403145	-0.315907	0.775970	1.140048	-0.264949	0.720543	0.701511	-0.201258	0.665117	8.769383	-1.469770	4.932241	0.000000	0.000000	28.437830	5.757768	1.542309	79.791267	0.793339	126.022329	0.378504	-1.382194	-11.556861	4.639425	78.438827	3.071643	137.333031	0.525210	7.439073	-20.089401	1.391137
3.983333	-10.013821	-9.453552	67.779416	0.196689	0.861831	0.571847	15.963829	-1.188712	1.972967	9.508130	0.165948	28.444498	0.997212	0.000000	15.096412	0.302275	-2.777995	6.532106	0.114007	32.345623	5.122484	0.000000	1.209612	-0.137123	0.846985	2.246370	-0.182374	0.899922	1.987271	-0.333402	0.899922	1.382465	-0.333402	0.741112	1.123246	-0.279622	0.688176	0.691172	-0.212404	0.635239	8.640136	-1.551166	4.710678	0.000000	0.000000	28.438246	5.780554	1.234157	79.746375	0.870413	121.617501	0.882969	0.920806	-11.180304	4.283276	78.433135	2.857466	135.695028	0.519502	6.785070	-19.989471	1.205573
4.000000	-9.935071	-9.229408	67.836965	0.196928	0.862192	0.571729	15.640712	-1.207790	1.978252	9.422624	0.164456	28.480017	1.018107	0.000000	14.768435	0.326556	-2.208270	6.490987	0.113289	32.104543	4.449787	0.000000	1.181706	-0.144125	0.800474	2.194547	-0.191686	0.850504	1.941425	-0.350425	0.850504	1.350572	-0.350425	0.700415	1.097333	-0.293899	0.650385	0.675227	-0.223249	0.600355	8.440811	-1.630369	4.451996	0.000000	0.000000	28.439532	5.726729	0.809794	79.466290	0.807377	115.303480	1.999996	4.173159	-10.826989	4.033769	78.392836	2.646508	133.438520	0.525764	6.118431	-19.699083	0.557968
4.016667	-9.803611	-8.933135	67.958489	0.197065	0.862645	0.571625	15.213702	-1.222999	1.850006	9.339888	0.163012	28.538833	1.151665	0.000000	14.360464	0.342153	-1.530385	6.460607	0.112759	31.870000	3.701015	0.000000	1.142121	-0.148910	0.753181	2.121033	-0.198050	0.800255	1.876391	-0.362060	0.800255	1.305330	-0.362060	0.659034	1.060574	-0.303657	0.611960	0.652608	-0.230661	0.564886	8.158058	-1.684499	4.188968	0.000000	0.000000	28.440762	5.592200	0.267282	78.938963	0.537681	107.547224	3.759612	7.777991	-10.471766	3.848254	78.307704	2.475833	130.798094	0.537831	5.414140	-19.222891	-0.561784
4.033333	-9.616510	-8.535681	68.171814	0.197080	0.863212	0.571621	14.661964	-1.244646	1.516017	9.272383	0.161834	28.646587	1.456841	0.000000	13.865898	0.348854	-0.857446	6.464566	0.112828	31.689008	3.064292	0.000000	1.086617	-0.153978	0.722923	2.017957	-0.204790	0.768105	1.785203	-0.374382	0.768105	1.241895	-0.374382	0.632557	1.009033	-0.313991	0.587375	0.620893	-0.238512	0.542192	7.761597	-1.741827	4.020679	0.000000	0.000000	28.434040	5.373065	-0.545261	78.086368	-0.029953	98.526978	6.253880	11.560574	-10.156896	3.766351	78.264303	2.416748	126.909970	0.554972	4.702215	-16.240896	-2.156724
4.050000	-9.354202	-8.058489	68.477441	0.196900	0.863886	0.571640	13.983796	-1.234600	1.141984	9.187088	0.160345	28.737631	1.699876	0.000000	13.291228	0.331924	-0.068550	6.483747	0.113163	31.538277	2.382245	0.000000	1.018421	-0.154994	0.706718	1.891309	-0.206141	0.750888	1.673163	-0.376851	0.750888	1.163953	-0.376851	0.618378	0.945706	-0.316063	0.574208	0.581926	-0.240085	0.530039	7.274478	-1.753318	3.930554	0.000000	0.000000	28.417969	5.090652	-1.571255	76.921720	-0.907095	88.632539	9.486944	15.061754	-9.833858	3.757959	78.189059	2.533427	123.235864	0.565949	4.027980	-13.373657	-4.144564
4.066667	-9.030473	-7.529018	68.881963	0.196555	0.864611	0.571597	13.210083	-1.202214	0.639042	9.094723	0.158733	28.842554	1.987183	0.000000	12.666172	0.290105	0.762539	6.515796	0.113722	31.444179	1.778181	0.000000	0.942609	-0.152488	0.691179	1.750520	-0.202809	0.734378	1.548613	-0.370759	0.734378	1.077308	-0.370759	0.604782	0.875307	-0.310954	0.561583	0.538607	-0.236204	0.518384	6.732965	-1.724975	3.844132	0.000000	0.000000	28.398068	4.779836	-2.741703	75.479592	-2.003975	78.153308	13.433149	18.221683	-9.503747	3.909833	78.057036	2.760572	120.401641	0.568674	3.347619	-11.657388	-6.335394
4.083333	-8.671973	-6.964456	69.369217	0.196110	0.865332	0.571494	12.367606	-1.152426	0.105536	8.993391	0.156964	28.955895	2.202982	0.000000	12.010974	0.241060	1.691294	6.547199	0.114270	31.386454	1.164367	0.000000	0.861907	-0.150202	0.674747	1.600647	-0.199768	0.716918	1.416027	-0.365200	0.716918	0.985073	-0.365200	0.590403	0.800367	-0.306291	0.548232	0.492494	-0.232662	0.506060	6.156514	-1.699110	3.752738	0.000000	0.000000	28.382833	4.459055	-4.089302	73.777116	-3.292064	67.412462	18.092525	20.778525	-9.124663	4.239312	77.894699	3.070383	118.573184	0.563204	2.758196	-11.382591	-8.620687
4.100000	-8.299696	-6.373511	69.912836	0.195631	0.866008	0.571367	11.488347	-1.096997	-0.489399	8.905440	0.155429	29.100080	2.414772	0.000000	11.338487	0.191820	2.672905	6.572084	0.114705	31.364043	0.565512	0.000000	0.777597	-0.150971	0.662447	1.444076	-0.200791	0.703850	1.277514	-0.367070	0.703850	0.888716	-0.367070	0.579641	0.722077	-0.307859	0.538238	0.444319	-0.233853	0.496835	5.554298	-1.707810	3.684331	0.000000	0.000000	28.384346	4.152102	-5.601515	71.808027	-4.756439	56.624795	23.516051	22.978565	-8.787517	4.811516	77.743381	3.462529	117.804398	0.550194	2.270134	-12.454619	-10.959621
4.116667	-7.937931	-5.775788	70.483541	0.195189	0.866592	0.571246	10.601184	-1.037644	-1.049137	8.821365	0.153962	29.264569	2.531753	0.000000	10.677539	0.146517	3.618112	6.598879	0.115172	31.381426	0.054656	0.000000	0.692123	-0.158802	0.667652	1.285342	-0.211207	0.709380	1.137089	-0.386112	0.709380	0.791027	-0.386112	0.584195	0.642705	-0.323829	0.542467	0.395479	-0.245985	0.500739	4.943766	-1.796402	3.713279	0.000000	0.000000	28.409081	3.871879	-7.376234	69.490108	-6.459992	46.090707	29.749856	24.514577	-8.453197	5.496352	77.639326	3.986031	118.153412	0.529566	1.898945	-14.742009	-13.279318
4.133333	-7.588494	-5.181793	71.055823	0.194779	0.867070	0.571156	9.739697	-0.977327	-1.649947	8.771927	0.153099	29.479918	2.684868	0.000000	10.032942	0.099372	4.543141	6.619479	0.115532	31.426362	-0.418679	0.000000	0.607130	-0.172285	0.704914	1.127501	-0.229139	0.748972	0.997454	-0.418895	0.748972	0.693889	-0.418895	0.616800	0.563781	-0.351324	0.572743	0.346914	-0.266870	0.528686	4.336669	-1.948926	3.920522	0.000000	0.000000	28.453018	3.632423	-9.322864	66.736722	-8.422825	35.940705	36.833246	26.042612	-8.276757	6.362596	77.588765	4.697673	119.603236	0.501590	1.608737	-18.079928	-15.527972
4.150000	-7.252570	-4.593255	71.596685	0.194406	0.867450	0.571112	8.910258	-0.911346	-2.222637	8.751792	0.152748	29.731549	2.815269	0.000000	9.399127	0.055289	5.495591	6.628941	0.115697	31.478596	-0.967172	0.000000	0.522913	-0.191115	0.795937	0.971102	-0.254183	0.845683	0.859094	-0.464677	0.845683	0.597638	-0.464677	0.696445	0.485577	-0.389722	0.646699	0.298793	-0.296037	0.596953	3.735118	-2.161933	4.426762	0.000000	0.000000	28.477217	3.421397	-11.503800	63.390114	-10.659989	26.389444	44.676827	27.430060	-8.257096	7.266234	77.579109	5.679808	122.122864	0.467192	1.393324	-22.310018	-17.652040
4.166667	-6.914754	-4.007249	72.091699	0.194023	0.867757	0.571168	8.110181	-0.827297	-2.717714	8.755243	0.152808	29.998634	2.877845	0.000000	8.776324	-0.005599	6.356954	6.643635	0.115953	31.566684	-1.458657	0.000000	0.439875	-0.211166	0.952155	0.816892	-0.280851	1.011665	0.722671	-0.513429	1.011665	0.502733	-0.513429	0.833136	0.408468	-0.430610	0.773626	0.251345	-0.327096	0.714117	3.141984	-2.388752	5.295603	0.000000	0.000000	28.436495	3.225395	-13.854104	59.378667	-13.126192	17.535343	53.126389	29.153758	-8.421413	8.168580	77.577927	6.967368	125.656998	0.427572	1.232928	-27.259428	-19.612859
4.183333	-6.577024	-3.425317	72.487292	0.193626	0.867996	0.571409	7.366168	-0.727520	-3.127857	8.803439	0.153649	30.272626	2.927408	0.000000	8.164205	-0.085311	7.065762	6.662855	0.116289	31.698733	-1.896109	0.000000	0.359719	-0.229890	1.189245	0.668034	-0.305753	1.263573	0.590982	-0.558954	1.263573	0.411123	-0.558954	1.040590	0.334035	-0.468791	0.966262	0.205543	-0.356099	0.891934	2.569436	-2.600560	6.614226	0.000000	0.000000	28.278386	2.998525	-16.411648	54.647694	-15.724539	9.661913	61.924699	31.208109	-8.817384	8.971116	77.547645	8.570458	130.301310	0.380745	1.177383	-32.787602	-21.294074
4.200000	-6.221155	-2.821431	72.785618	0.193173	0.868246	0.571875	6.633753	-0.602245	-3.355284	8.867395	0.154765	30.494687	2.821022	0.000000	7.530895	-0.184420	7.661033	6.680900	0.116604	31.869627	-2.311734	0.000000	0.278789	-0.244140	1.504212	0.517739	-0.324707	1.598225	0.458022	-0.593603	1.598225	0.318628	-0.593603	1.316185	0.258883	-0.497851	1.222172	0.159300	-0.378173	1.128159	1.991360	-2.761763	8.365975	0.000000	0.000000	27.970680	2.739330	-19.162508	49.269700	-18.345915	2.812723	70.754765	33.501093	-9.054155	9.559223	77.431057	10.460606	135.702449	0.331157	1.131191	-38.661925	-22.739922
4.216667	-5.833230	-2.195879	72.982172	0.192632	0.868537	0.572591	5.917432	-0.436938	-3.399022	8.957853	0.156344	30.641489	2.550255	0.000000	6.881397	-0.318788	8.090351	6.710767	0.117125	32.091774	-2.643162	0.000000	0.197810	-0.248181	1.885980	0.367353	-0.330080	2.003854	0.324982	-0.603426	2.003854	0.226077	-0.603426	1.650233	0.183686	-0.506090	1.532359	0.113029	-0.384432	1.414485	1.412937	-2.807469	10.489256	0.000000	0.000000	27.496851	2.438067	-21.887468	43.358064	-20.885705	-2.477469	79.296058	35.933372	-9.464554	9.821362	77.187204	12.558728	141.854715	0.278260	1.118710	-44.762657	-23.806776
